<?xml version="1.0" standalone="no"?>
<!DOCTYPE svg PUBLIC "-//W3C//DTD SVG 20010904//EN"
 "http://www.w3.org/TR/2001/REC-SVG-20010904/DTD/svg10.dtd">
<svg version="1.0" xmlns="http://www.w3.org/2000/svg"
 width="48.000000pt" height="48.000000pt" viewBox="0 0 48.000000 48.000000"
 preserveAspectRatio="xMidYMid meet">

<g transform="translate(0.000000,48.000000) scale(0.100000,-0.100000)"
fill="#000000" stroke="none">
<path d="M161 373 c-35 -8 -59 -18 -55 -23 5 -4 30 -15 57 -25 38 -14 47 -22
47 -41 l0 -24 -49 19 c-34 12 -61 16 -87 12 -37 -6 -32 -9 76 -37 l115 -31 67
23 c63 21 69 21 79 6 9 -15 10 -15 5 1 -3 10 -6 21 -6 23 0 2 -10 4 -22 4 -21
1 -21 2 -5 11 35 20 20 48 -39 74 -64 28 -92 30 -183 8z m152 -110 c-7 -2 -19
-2 -25 0 -7 3 -2 5 12 5 14 0 19 -2 13 -5z"/>
<path d="M128 203 c7 -3 16 -2 19 1 4 3 -2 6 -13 5 -11 0 -14 -3 -6 -6z"/>
<path d="M58 168 c5 -5 16 -8 23 -6 8 3 3 7 -10 11 -17 4 -21 3 -13 -5z"/>
<path d="M247 126 c-14 -21 -14 -25 -2 -30 11 -4 15 2 15 18 0 14 6 27 13 29
7 4 8 6 1 6 -7 1 -19 -10 -27 -23z"/>
</g>
</svg>
